<?xml version="1.0" encoding="UTF-8"?>
<!-- Generator: visioncortex VTracer 0.6.12 -->
<svg version="1.1" xmlns="http://www.w3.org/2000/svg" width="217" height="217">
<path d="M0 0 C0.682 0.001 1.365 0.001 2.068 0.002 C13.099 0.042 23.416 0.884 33.938 4.375 C34.256 4.477 34.256 4.477 35.868 4.992 C52.441 10.452 65.663 20.24 77.938 32.375 C78.6 32.965 79.263 33.556 79.945 34.164 C99.291 51.711 107.67 80.552 109.066 105.695 C109.821 135.364 98.363 163.101 78.438 184.811 C60.45 203.56 34.097 216.406 7.938 217.375 C6.648 217.427 5.359 217.478 4.031 217.531 C-27.584 218.379 -55.801 206.826 -78.75 185.125 C-98.51 164.46 -108.513 137.652 -108.438 109.312 C-108.437 108.579 -108.437 107.846 -108.437 107.09 C-108.405 96.027 -107.714 85.91 -104.062 75.375 C-103.712 74.275 -103.361 73.176 -103 72.043 C-98.269 58.458 -90.768 45.961 -81.062 35.375 C-80.219 34.451 -79.376 33.526 -78.508 32.574 C-57.807 10.883 -29.694 -0.04 0 0 Z " fill="#E6F3F2" transform="translate(108.0625,-0.375)"/>
<path d="M0 0 C2.914 0.236 4.754 0.843 7.223 2.422 C10.462 4.263 13.529 5.091 17.125 6.062 C23.872 8.03 30.023 10.752 36.25 14 C37.06 14.415 37.869 14.83 38.704 15.258 C44.404 18.32 48.08 21.614 50.875 27.562 C52.024 29.978 53.192 32.362 54.445 34.727 C57.764 41.047 60.172 47.197 62.043 54.09 C63.018 57.055 64.358 59.36 66 62 C66.438 64.438 66.438 64.438 66 67 C65.028 68.374 64.053 69.747 63.059 71.105 C61.729 73.486 61.303 75.706 60.75 78.375 C59.058 85.874 55.632 92.329 52.006 99.048 C51 101 51 101 50.088 103.134 C47.812 108.335 45.739 110.327 40.375 112.688 C39.109 113.261 37.844 113.835 36.578 114.41 C35.397 114.935 34.217 115.459 33 116 C31.371 116.867 29.745 117.741 28.125 118.625 C23.081 121.181 17.776 122.75 12.356 124.301 C7.198 125.802 7.198 125.802 5 128 C-0.265 128.572 -0.265 128.572 -2.777 126.617 C-5.613 124.554 -8.33 123.818 -11.688 122.812 C-17.702 120.918 -23.416 118.614 -29.125 115.938 C-29.835 115.609 -30.545 115.281 -31.276 114.943 C-38.299 111.584 -42.562 107.805 -46.5 101 C-46.695 100.668 -46.695 100.668 -47.68 98.989 C-52.572 90.486 -56.061 81.856 -58.227 72.277 C-59.078 69.771 -60.099 68.777 -62 67 C-62.375 64.562 -62.375 64.562 -62 62 C-61.54 61.433 -61.08 60.866 -60.605 60.281 C-58.51 57.304 -57.878 54.453 -56.938 50.938 C-54.984 44.228 -52.332 38.08 -49.125 31.875 C-48.727 31.082 -48.328 30.289 -47.918 29.472 C-43.643 21.456 -37.715 16.968 -29.75 12.875 C-29.099 12.534 -28.448 12.194 -27.777 11.843 C-22.345 9.059 -16.817 6.855 -11 5 C-9.312 4.461 -7.624 3.919 -5.938 3.375 C-5.225 3.156 -4.512 2.937 -3.777 2.711 C-2 2 -2 2 0 0 Z " fill="#E2F3F2" transform="translate(106,44)"/>
<path d="M0 0 C2.914 0.236 4.754 0.843 7.223 2.422 C10.462 4.263 13.529 5.091 17.125 6.062 C23.872 8.03 30.023 10.752 36.25 14 C37.06 14.415 37.869 14.83 38.704 15.258 C44.404 18.32 48.08 21.614 50.875 27.562 C52.024 29.978 53.192 32.362 54.445 34.727 C57.764 41.047 60.172 47.197 62.043 54.09 C63.018 57.055 64.358 59.36 66 62 C66.438 64.438 66.438 64.438 66 67 C65.028 68.374 64.053 69.747 63.059 71.105 C61.729 73.486 61.303 75.706 60.75 78.375 C59.058 85.874 55.632 92.329 52.006 99.048 C51 101 51 101 50.088 103.134 C47.812 108.335 45.739 110.327 40.375 112.688 C39.109 113.261 37.844 113.835 36.578 114.41 C35.397 114.935 34.217 115.459 33 116 C31.371 116.867 29.745 117.741 28.125 118.625 C23.081 121.181 17.776 122.75 12.356 124.301 C7.198 125.802 7.198 125.802 5 128 C-0.265 128.572 -0.265 128.572 -2.777 126.617 C-5.613 124.554 -8.33 123.818 -11.688 122.812 C-17.702 120.918 -23.416 118.614 -29.125 115.938 C-29.835 115.609 -30.545 115.281 -31.276 114.943 C-38.299 111.584 -42.562 107.805 -46.5 101 C-46.695 100.668 -46.695 100.668 -47.68 98.989 C-52.572 90.486 -56.061 81.856 -58.227 72.277 C-59.078 69.771 -60.099 68.777 -62 67 C-62.375 64.562 -62.375 64.562 -62 62 C-61.54 61.433 -61.08 60.866 -60.605 60.281 C-58.51 57.304 -57.878 54.453 -56.938 50.938 C-54.984 44.228 -52.332 38.08 -49.125 31.875 C-48.727 31.082 -48.328 30.289 -47.918 29.472 C-43.643 21.456 -37.715 16.968 -29.75 12.875 C-29.099 12.534 -28.448 12.194 -27.777 11.843 C-22.345 9.059 -16.817 6.855 -11 5 C-9.312 4.461 -7.624 3.919 -5.938 3.375 C-5.225 3.156 -4.512 2.937 -3.777 2.711 C-2 2 -2 2 0 0 Z M-17.25 20.375 C-17.969 20.692 -18.689 21.009 -19.43 21.336 C-22.344 22.646 -24.723 23.723 -27 26 C-27.414 27.945 -27.414 27.945 -27.625 30.125 C-27.749 31.404 -27.873 32.683 -28 34 C-29.217 34 -30.434 34 -31.688 34 C-34.346 34.338 -35.608 34.601 -37.504 36.531 C-38.834 38.633 -39.934 40.753 -41 43 C-41.197 43.371 -41.197 43.371 -42.191 45.25 C-44.752 50.388 -45.603 54.271 -45 60 C-44.34 60.66 -43.68 61.32 -43 62 C-43.556 66.556 -43.556 66.556 -45 68 C-45.538 73.988 -44.095 78.024 -41.625 83.312 C-41.466 83.67 -41.466 83.67 -40.664 85.479 C-39.354 88.375 -38.265 90.735 -36 93 C-33.672 93.368 -31.338 93.702 -29 94 C-28.835 94.165 -28.835 94.165 -28 95 C-28.021 96.217 -28.041 97.434 -28.062 98.688 C-27.733 101.796 -27.309 102.738 -24.887 104.793 C-19.128 108.248 -13.645 111.291 -6.812 111.25 C-6.383 111.253 -6.383 111.253 -4.207 111.266 C-2 111 -2 111 0 109 C2.747 109.392 5.368 110.095 8.055 110.789 C13.44 111.077 17.111 109.283 21.938 107.062 C22.375 106.869 22.375 106.869 24.588 105.893 C26.732 104.943 28.869 103.979 31 103 C31.33 100.36 31.66 97.72 32 95 C35 94 35 94 37.949 93.867 C41 93 41 93 43.082 89.945 C43.682 88.682 44.258 87.408 44.812 86.125 C45.111 85.487 45.409 84.849 45.717 84.191 C48.185 78.855 49.317 74.911 49 69 C48.34 68.01 47.68 67.02 47 66 C47.321 63.366 47.814 61.373 49 59 C50.031 51.097 46.48 43.603 42.059 37.18 C39.26 34.216 36.965 34.299 33 34 C32 33 32 33 31.938 29.75 C30.938 25.753 30.787 25.391 27.562 23.312 C14.024 15.972 14.024 15.972 7 17 C6.01 17.66 5.02 18.32 4 19 C1.366 18.679 -0.627 18.186 -3 17 C-8.506 16.423 -12.372 18.124 -17.25 20.375 Z " fill="#85CCC5" transform="translate(106,44)"/>
<path d="M0 0 C6.058 4.247 10.024 10.376 12.312 17.375 C13.38 27.542 11.941 35.462 6.625 44.125 C-0.319 50.881 -7.726 54.64 -17.5 54.75 C-26.883 54.582 -33.049 51.715 -39.895 45.375 C-46.311 38.218 -48.075 30.922 -47.961 21.539 C-47.227 13.041 -43.155 5.877 -36.688 0.375 C-24.267 -7.318 -12.571 -7.581 0 0 Z " fill="#85CCC5" transform="translate(125.6875,83.625)"/>
<path d="M0 0 C4.349 3.095 6.57 6.273 8.25 11.312 C8.895 16.766 8.565 21.093 5.527 25.742 C2.666 29.26 -0.395 31.861 -4.75 33.312 C-10.017 33.817 -14.382 33.984 -19.188 31.625 C-24.523 26.81 -27.415 22.715 -28.125 15.5 C-27.965 10.8 -26.622 7.046 -23.75 3.312 C-16.526 -2.668 -8.591 -4.434 0 0 Z " fill="#E2F3F2" transform="translate(117.75,92.6875)"/>
</svg>
